<svg xmlns="http://www.w3.org/2000/svg" width="553" height="105" fill="none" viewBox="0 0 553 105"><path fill="#fff" d="m15.983 82.727-6.393-1.59-3.197-1.591-3.196-3.182-1.599-3.182L0 66.818v-3.182l1.598-6.363 1.599-3.182 3.196-3.182 1.598-3.182 1.599-6.363L7.99 35l-1.598-3.182-3.196-3.182-1.599-3.181L0 19.09v-3.182l1.598-6.364 1.599-3.181 3.196-3.182L9.59 1.59 15.983 0h3.196l6.393 1.59 3.197 1.592 3.196 3.182 3.197 1.59 6.393 1.591 3.196.597 6.394.994 3.196.597 6.393.994h9.59l6.393-.994 3.196-.597 6.393-.994 3.197-.597 6.393-1.59 3.197-1.591 3.196-3.182 3.197-1.591L111.879 0h3.196l6.393 1.59 3.197 1.592 3.196 3.182 1.599 3.181 1.598 6.364v3.182l-1.598 6.363-1.599 3.182-3.196 3.182L123.066 35l-1.598 6.364 1.598 6.363 1.599 3.182 3.196 3.182 1.599 3.182 1.598 6.363v3.182l-1.598 6.364-1.599 3.182-3.196 3.182-3.197 1.59-6.393 1.591h-3.196l-6.393-1.59-3.197-1.591-3.197-3.182-1.598-3.182-1.598-6.364v-3.182l1.598-6.363 1.599-3.182 3.196-3.182 1.598-3.182 1.599-6.363L102.289 35l-3.197-1.59-6.393-1.592h-6.393l-6.393 1.591L76.717 35l-3.197 6.364 1.599 6.363 1.598 3.182 3.196 3.182 1.599 3.182 1.598 6.363v3.182l-1.598 6.364-1.599 3.182-3.196 3.182-3.197 1.59-6.393 1.591h-3.196l-6.393-1.59-3.197-1.591-3.197-3.182-1.598-3.182-1.598-6.364v-3.182l1.598-6.363 1.599-3.182 3.196-3.182 1.598-3.182 1.599-6.363L54.34 35l-3.197-1.59-6.393-1.592h-6.393l-6.393 1.591L28.77 35l-3.197 6.364 1.599 6.363 1.598 3.182 3.196 3.182 1.599 3.182 1.598 6.363v3.182l-1.598 6.364-1.599 3.182-3.196 3.182-3.197 1.59-6.393 1.591zM179.006 35l3.196-1.59 1.599-1.592 1.598-3.182v-6.363l-1.598-3.182-1.599-1.591-3.196-1.59h-6.393l-3.197 1.59-1.598 1.59-1.598 3.183v6.363l1.598 3.182 1.598 1.591L172.613 35zm-28.769 47.727-6.393-1.59-3.197-1.591-3.196-3.182-1.598-3.182-1.599-6.364v-3.182l1.599-6.363 1.598-3.182 3.196-3.182 1.599-3.182 1.598-6.363L142.246 35l-1.599-3.182-3.196-3.182-1.598-3.181-1.599-6.364v-3.182l1.599-6.364 1.598-3.181 3.196-3.182 3.197-1.591L150.237 0h3.197l6.393 1.59 3.196 1.592 3.197 3.182 3.196 1.59 6.393 1.591 6.393-1.59 3.197-1.591 3.196-3.182 3.197-1.591L198.185 0h3.197l6.393 1.59 3.196 1.592 3.197 3.182 1.598 3.181 1.598 6.364v3.182l-1.598 6.363-1.598 3.182-3.197 1.591-6.393 1.194-3.196.397h-3.197l-6.393 1.591L190.194 35l-1.599 3.182v6.363l1.599 3.182 1.598 1.591 6.393 1.591h3.197l3.196.597 6.393.994 3.197 1.59 1.598 3.183 1.598 6.363v3.182l-1.598 6.364-1.598 3.182-3.197 3.182-3.196 1.59-6.393 1.591h-3.197l-6.393-1.59-3.197-1.591-3.196-3.182-3.197-1.591-6.393-1.591-6.393 1.59-3.196 1.592-3.197 3.182-3.196 1.59-6.393 1.591zm83.11 0-6.393-1.59-4.795-4.773L220.561 70v-3.182l1.598-6.363 4.795-4.773 6.393-1.591h3.196l6.393 1.59 3.197 1.592 3.196 3.182 3.197 1.59 6.393 1.591 6.393-1.59 1.598-1.591v-3.182l-1.598-3.182-31.965-15.91-9.59-9.545-1.598-3.181-1.598-6.364v-3.182l1.598-6.364 1.598-3.181 3.197-3.182 3.196-1.591L236.543 0h3.197l6.393 1.59 3.196 1.592 3.197 3.182 3.197 1.59 6.393 1.591 6.393-1.59 3.196-1.591 3.197-3.182 3.196-1.591L284.491 0h3.197l6.393 1.59 4.795 4.774 1.598 6.363v3.182l-1.598 6.364-4.795 4.773-6.393 1.59h-3.197l-6.393-1.59-3.196-1.591-3.197-3.182-3.196-1.591-6.393-1.591-6.393 1.59-1.599 1.592v3.182l1.599 3.181 31.965 15.91 9.589 9.545 1.599 3.182 1.598 6.363v3.182l-1.598 6.364-1.599 3.182-3.196 3.182-3.197 1.59-6.393 1.591h-3.196l-6.393-1.59-3.197-1.591-3.196-3.182-3.197-1.591-6.393-1.591-6.393 1.59-3.197 1.592-3.196 3.182-3.197 1.59-6.393 1.591zm83.11 0-6.393-1.59-4.795-4.773L303.671 70v-3.182l1.598-6.363 4.795-4.773 6.393-1.591h3.196l6.393 1.59 3.197 1.592 3.196 3.182 3.197 1.59 6.393 1.591 6.393-1.59 1.598-1.591v-3.182l-1.598-3.182-31.965-15.91-9.59-9.545-1.598-3.181-1.598-6.364v-3.182l1.598-6.364 1.598-3.181 3.197-3.182 3.196-1.591L319.653 0h3.197l6.393 1.59 3.196 1.592 3.197 3.182 3.196 1.59 6.393 1.591 6.393-1.59 3.197-1.591 3.197-3.182 3.196-1.591L367.601 0h3.197l6.393 1.59 4.795 4.774 1.598 6.363v3.182l-1.598 6.364-4.795 4.773-6.393 1.59h-3.197l-6.393-1.59-3.196-1.591-3.197-3.182-3.197-1.591-6.393-1.591-6.393 1.59-1.598 1.592v3.182l1.598 3.181 31.966 15.91 9.589 9.545 1.599 3.182 1.598 6.363v3.182l-1.598 6.364-1.599 3.182-3.196 3.182-3.197 1.59-6.393 1.591h-3.196l-6.393-1.59-3.197-1.591-3.197-3.182-3.196-1.591-6.393-1.591-6.393 1.59-3.197 1.592-3.196 3.182-3.197 1.59-6.393 1.591zm83.109 0-6.393-1.59-4.794-4.773L386.78 70v-3.182l1.599-6.363 4.794-4.773 6.393-1.591h3.197l6.393 1.59 3.197 1.592 3.196 3.182 3.197 1.59 6.393 1.591 6.393-1.59 1.598-1.591v-3.182l-1.598-3.182-31.966-15.91-9.589-9.545-1.598-3.181-1.599-6.364v-3.182l1.599-6.364 1.598-3.181 3.196-3.182 3.197-1.591L402.763 0h3.197l6.393 1.59 3.196 1.592 3.197 3.182 3.196 1.59 6.393 1.591 6.393-1.59 3.197-1.591 3.196-3.182 3.197-1.591L450.711 0h3.197l6.393 1.59 4.794 4.774 1.599 6.363v3.182l-1.599 6.364-4.794 4.773-6.393 1.59h-3.197l-6.393-1.59-3.197-1.591-3.196-3.182-3.197-1.591-6.393-1.591-6.393 1.59-1.598 1.592v3.182l1.598 3.181 31.966 15.91 9.589 9.545 1.598 3.182 1.599 6.363v3.182l-1.599 6.364-1.598 3.182-3.196 3.182-3.197 1.59-6.393 1.591h-3.197l-6.393-1.59-3.196-1.591-3.197-3.182-3.196-1.591-6.393-1.591-6.393 1.59-3.197 1.592-3.196 3.182-3.197 1.59-6.393 1.591zM485.873 105l-6.393-1.591-4.795-4.773-1.598-6.363V89.09l1.598-6.364 4.795-4.773 6.393-1.59h3.196l6.393 1.59 3.197 1.592 3.196 3.181 1.599 3.182 1.598 1.591 3.197 1.59h6.393l3.196-1.59 1.598-1.59 1.599-3.183v-6.363l-1.599-3.182-1.598-1.591-3.196-1.59h-6.393l-3.197 1.59-3.197 3.183-6.393 1.59-6.393-1.59-3.196-1.591L482.676 70l-1.598-3.182-1.598-6.363v-15.91l-1.598-6.363L476.283 35l-3.196-3.182-1.599-3.182-1.598-6.363V19.09l1.598-6.364 1.599-3.182 3.196-3.181 3.197-1.591 6.393-1.591h3.196l6.393 1.59 3.197 1.592 3.196 3.181 1.599 3.182 1.598 6.364v3.182l-1.598 6.363-1.599 3.182L498.659 35l-1.598 3.182-1.599 6.363 3.197 6.364 3.196 1.591 6.394 1.59h6.393l6.393-1.59 3.196-1.59 3.197-6.364-1.599-6.364L524.231 35l-3.196-3.182-1.599-3.182-1.598-6.363V19.09l1.598-6.364 1.599-3.182 3.196-3.181 3.197-1.591 6.393-1.591h3.196l6.393 1.59 3.197 1.592 3.196 3.181 1.599 3.182L553 19.091v3.182l-1.598 6.363-1.599 3.182L546.607 35l-1.598 3.182-1.599 6.363v19.091L545.009 70l1.598 3.182 3.196 3.182 1.599 3.182L553 85.909v3.182l-1.598 6.364-1.599 3.181-3.196 3.182-3.197 1.591-6.393 1.591h-3.196l-6.393-1.591-3.197-1.591-3.196-3.182-3.197-1.59-6.393-1.592-6.393 1.592-3.197 1.59-3.196 3.182-3.197 1.591-6.393 1.591z"/></svg>